HIERARCHY
ROOT root
{
	OFFSET 0.000000 0.000000 0.000000
	CHANNELS 6 Xposition Yposition Zposition Zrotation Yrotation Xrotation
	JOINT lhip
	{
		OFFSET 0.058581 -0.082280 -0.017664
		CHANNELS 3 Zrotation Yrotation Xrotation
		JOINT lknee
		{
			OFFSET 0.043451 -0.386469 0.008037
			CHANNELS 3 Zrotation Yrotation Xrotation
			JOINT lankle
			{
				OFFSET -0.014790 -0.426874 -0.037428
				CHANNELS 3 Zrotation Yrotation Xrotation
				JOINT ltoe
				{
					OFFSET 0.041054 -0.060286 0.122042
					CHANNELS 3 Zrotation Yrotation Xrotation
					End Site
					{
						OFFSET 0.000000 0.000000 0.000000
					}
				}
			}
		}
	}
	JOINT rhip
	{
		OFFSET -0.060310 -0.090513 -0.013543
		CHANNELS 3 Zrotation Yrotation Xrotation
		JOINT rknee
		{
			OFFSET -0.043257 -0.383688 -0.004843
			CHANNELS 3 Zrotation Yrotation Xrotation
			JOINT rankle
			{
				OFFSET 0.019056 -0.420046 -0.034562
				CHANNELS 3 Zrotation Yrotation Xrotation
				JOINT rtoe
				{
					OFFSET -0.034840 -0.062106 0.130323
					CHANNELS 3 Zrotation Yrotation Xrotation
					End Site
					{
						OFFSET 0.000000 0.000000 0.000000
					}
				}
			}
		}
	}
	JOINT lowerback
	{
		OFFSET 0.004439 0.124404 -0.038385
		CHANNELS 3 Zrotation Yrotation Xrotation
		JOINT upperback
		{
			OFFSET 0.004488 0.137956 0.026820
			CHANNELS 3 Zrotation Yrotation Xrotation
			JOINT chest
			{
				OFFSET -0.002265 0.056032 0.002855
				CHANNELS 3 Zrotation Yrotation Xrotation
				JOINT lowerneck
				{
					OFFSET -0.013390 0.211636 -0.033468
					CHANNELS 3 Zrotation Yrotation Xrotation
					JOINT upperneck
					{
						OFFSET 0.010113 0.088937 0.050410
						CHANNELS 3 Zrotation Yrotation Xrotation
						End Site
						{
							OFFSET 0.000000 0.000000 0.000000
						}
					}
				}
				JOINT lclavicle
				{
					OFFSET 0.071702 0.114000 -0.018898
					CHANNELS 3 Zrotation Yrotation Xrotation
					JOINT lshoulder
					{
						OFFSET 0.122921 0.045205 -0.019046
						CHANNELS 3 Zrotation Yrotation Xrotation
						JOINT lelbow
						{
							OFFSET 0.255332 -0.015649 -0.022946
							CHANNELS 3 Zrotation Yrotation Xrotation
							JOINT lwrist
							{
								OFFSET 0.265709 0.012698 -0.007375
								CHANNELS 3 Zrotation Yrotation Xrotation
								End Site
								{
									OFFSET 0.000000 0.000000 0.000000
								}
							}
						}
					}
				}
				JOINT rclavicle
				{
					OFFSET -0.082954 0.112472 -0.023707
					CHANNELS 3 Zrotation Yrotation Xrotation
					JOINT rshoulder
					{
						OFFSET -0.113228 0.046853 -0.008472
						CHANNELS 3 Zrotation Yrotation Xrotation
						JOINT relbow
						{
							OFFSET -0.260127 -0.014369 -0.031269
							CHANNELS 3 Zrotation Yrotation Xrotation
							JOINT rwrist
							{
								OFFSET -0.269108 0.006794 -0.006027
								CHANNELS 3 Zrotation Yrotation Xrotation
								End Site
								{
									OFFSET 0.000000 0.000000 0.000000
								}
							}
						}
					}
				}
			}
		}
	}
}
MOTION
Frames: 17
Frame Time: 0.033333
0.157782 0.773857 0.998365 -93.741211 0.007278 77.301342 8.130050 -6.729525 -33.644135 -4.522177 13.884475 80.592108 2.732020 7.964354 -21.225446 0.000000 -0.000000 0.000000 2.552338 -2.257931 10.564132 2.415096 6.619467 8.850462 1.195262 -2.333480 -9.482033 0.000000 -0.000000 0.000000 -1.483357 8.142776 16.288423 3.510275 -5.468416 6.280046 -0.294356 -1.108948 7.324702 1.292048 -2.041973 10.718874 4.635421 -2.731149 13.121331 -24.975028 5.349150 3.187232 -62.024637 -3.396898 3.361896 11.476004 -25.615520 2.767671 -4.204175 0.565495 -7.828290 23.103719 -4.080019 -1.049044 60.748590 4.132396 8.954793 -20.208409 37.519648 -5.186475 8.078508 -1.607843 -10.124653 
0.143030 0.773675 0.998044 -94.504218 -0.554199 77.314284 9.252791 -6.496722 -37.509869 -3.932962 14.940622 77.627554 2.989295 7.979072 -21.761500 0.000000 -0.000000 0.000000 1.970387 -2.123091 11.516368 2.275404 7.594752 9.103196 1.296283 -2.327635 -10.632719 0.000000 -0.000000 0.000000 -1.643333 9.015471 16.414714 3.203425 -5.361801 6.533943 -0.564723 -0.751337 7.350370 1.445033 -1.470814 10.404939 4.641689 -3.244152 13.346214 -25.214616 5.803305 3.029219 -61.542725 -2.316839 2.957321 11.340211 -24.447898 3.039087 -3.426479 0.235402 -6.873814 23.379706 -3.386881 -0.695286 60.410199 5.519199 9.243180 -20.193247 37.967299 -5.687588 6.075048 -1.332613 -10.661866 
0.128070 0.773242 0.997252 -95.067092 -1.022109 77.344697 9.867794 -6.099663 -39.938409 -3.892773 15.388308 72.721718 3.093985 7.989294 -21.535066 0.000000 -0.000000 0.000000 1.324246 -2.388272 12.368264 2.135541 8.077499 9.632665 1.296007 -1.832276 -11.884608 0.000000 -0.000000 0.000000 -1.901838 9.623095 16.731643 2.904525 -5.234284 6.482856 -0.644672 -0.448935 7.335287 1.472258 -1.296732 10.659568 4.219141 -3.536410 13.431538 -25.332885 6.315329 2.932355 -61.317908 -1.337410 2.511523 11.375732 -23.361413 3.275154 -3.915631 0.399778 -6.791354 23.406776 -3.026254 -0.850214 60.104760 6.698047 9.365100 -19.522086 38.263311 -5.033136 6.689743 -0.943763 -10.580929 
0.112316 0.772755 0.996040 -95.458141 -1.263830 77.271504 10.137187 -5.706131 -40.936104 -4.697784 15.045614 66.715482 3.095202 7.612609 -20.904354 0.000000 -0.000000 0.000000 1.038915 -2.411588 13.442071 1.932189 8.472714 10.135047 1.065090 -1.756981 -13.301746 0.000000 -0.000000 0.000000 -2.043008 10.008703 16.949043 2.660544 -5.082049 6.715642 -0.648813 -0.125045 7.326605 1.475394 -0.838266 10.542440 4.135047 -3.925419 13.526634 -25.420011 6.579945 2.724388 -61.190680 -0.596972 2.122992 11.488323 -22.477401 3.211078 -4.380199 0.671744 -6.989293 23.419892 -2.581626 -0.873083 59.970067 7.834166 9.509158 -19.186080 38.827555 -4.312830 6.980438 -0.787247 -10.291318 
0.095948 0.771651 0.994584 -95.770868 -1.418492 77.185181 9.898811 -5.445578 -40.792053 -5.888025 13.871040 60.824237 3.067935 7.367800 -19.839557 0.000000 -0.000000 0.000000 0.570585 -2.622432 14.699620 1.941603 8.976986 10.201530 1.032552 -1.630317 -14.197921 0.000000 -0.000000 0.000000 -2.029301 10.313490 17.284385 2.316656 -4.932394 6.885281 -0.718338 0.105278 7.239942 1.486513 -0.467327 10.559283 4.057472 -4.168935 13.509041 -25.468117 6.744776 2.354406 -60.937565 0.328019 1.882332 11.456036 -21.905885 3.052589 -4.577057 0.663063 -7.255927 23.495858 -1.899989 -0.894104 59.757732 8.441837 9.755658 -18.673396 39.498667 -3.887117 7.611934 -0.801055 -9.816975 
0.078574 0.770636 0.992670 -96.093711 -1.336186 77.277596 9.810991 -5.330257 -39.902159 -6.740531 12.977149 55.778629 2.782123 7.165330 -18.184206 0.000000 -0.000000 0.000000 0.454223 -2.614109 15.579922 1.934247 9.071335 10.817555 0.975571 -1.528739 -15.375783 0.000000 -0.000000 0.000000 -2.049726 10.569534 17.000993 2.204412 -4.617480 7.674916 -0.805354 0.336126 7.053073 1.705400 -0.404622 10.241468 3.857329 -4.564087 13.709445 -25.643683 6.771073 2.141916 -60.537100 0.878852 1.811918 11.553658 -21.963933 2.716800 -4.980895 0.706568 -7.321964 23.666963 -1.402369 -0.993766 59.600358 8.966849 10.007901 -18.475207 40.532837 -3.545186 8.667831 -0.575588 -10.134687 
0.064754 0.769517 0.990836 -96.203338 -1.279837 77.666289 9.729750 -5.477669 -39.274642 -7.282129 12.437731 52.849007 2.328673 6.623739 -16.232519 0.000000 -0.000000 0.000000 0.389267 -2.422897 16.116267 1.897542 8.983973 10.941534 0.841077 -1.611441 -16.029903 0.000000 -0.000000 0.000000 -2.151565 10.677355 16.605891 2.104974 -4.451148 7.845819 -0.914604 0.478255 6.910036 1.890151 -0.091485 10.029894 3.518738 -4.885876 14.033671 -25.526507 7.109763 2.034989 -60.469275 1.074727 1.942692 11.680072 -21.907171 2.658868 -4.983394 0.774142 -7.395091 23.782096 -1.333037 -1.062021 59.662239 9.280425 10.432848 -17.989596 41.257287 -2.981696 8.587330 -0.268320 -10.414472 
0.046147 0.767485 0.988897 -96.400308 -1.294953 78.367435 9.269201 -5.738241 -38.048111 -7.946510 11.449572 49.773277 1.488164 5.795063 -13.254277 0.000000 -0.000000 0.000000 0.193637 -2.354513 16.452600 1.718922 8.894768 11.405456 0.743403 -1.495109 -16.589823 0.000000 -0.000000 0.000000 -2.442202 10.885165 15.885642 1.961474 -4.195102 8.248306 -1.048110 0.776706 6.891838 2.099297 0.577167 9.667103 3.418034 -5.161449 13.856291 -25.500737 7.274557 1.141115 -60.080867 1.456952 2.453281 11.668199 -21.992699 2.083707 -4.802443 0.636832 -7.164117 23.908189 -1.018749 -1.406030 60.005157 9.106951 11.269413 -18.507851 42.300462 -3.381900 9.298368 -0.711859 -10.501420 
0.026436 0.765125 0.987295 -96.792981 -1.245581 79.384099 8.683729 -6.242367 -36.328548 -8.390375 10.303171 47.383415 1.865682 5.331286 -11.522305 0.000000 -0.000000 0.000000 0.139676 -2.043082 16.649068 1.602382 9.075669 11.625267 0.682118 -1.663358 -16.607350 0.000000 -0.000000 0.000000 -2.691040 11.100875 14.925514 1.708927 -3.667061 8.297984 -1.245045 0.948069 6.663994 2.211650 0.466902 9.586258 3.318804 -5.292478 13.924064 -25.389778 7.521728 1.605320 -59.734624 1.214777 2.526780 12.034202 -22.900301 1.791864 -5.012221 0.730145 -7.736756 23.859625 -0.992839 -1.048042 60.437521 9.227124 11.701418 -18.303065 43.038609 -2.568012 10.057286 -0.161128 -10.872296 
0.006675 0.762309 0.986780 -96.954138 -1.194877 80.339364 7.120535 -5.585838 -34.971696 -8.604740 8.799016 46.604468 5.601012 8.127759 -14.936916 0.000000 -0.000000 0.000000 -0.330957 -2.730421 16.332788 1.458083 8.919823 12.823591 1.038450 -1.376327 -16.732516 0.000000 -0.000000 0.000000 -2.796241 11.162866 15.196087 1.415961 -2.886429 5.807294 -1.719673 1.145151 7.901667 3.487191 0.794921 9.498454 2.459541 -6.671379 13.593715 -25.358459 8.446345 1.669999 -58.337722 0.461285 5.386205 11.208913 -23.950368 3.323689 -1.162614 1.310763 -12.671394 24.266476 -2.073945 -1.180897 60.846786 9.226584 14.180369 -18.260895 43.104620 -1.394507 5.768133 0.926479 -12.478470 
-0.016217 0.757874 0.990794 -96.215790 -1.419870 81.995078 6.317900 -6.618444 -36.083966 -8.143974 9.173644 48.026601 5.417333 7.848836 -15.133967 0.000000 -0.000000 0.000000 -0.764814 -2.396248 15.874266 1.084693 8.542226 13.011303 2.107331 -1.094347 -13.862912 0.000000 -0.000000 0.000000 -3.651154 11.381020 15.228780 1.061024 -3.002551 5.032691 -1.853609 1.214359 7.629475 3.421989 0.383106 8.729683 3.066283 -6.623913 12.473774 -25.689435 8.157232 1.167911 -57.245979 -0.233150 5.918815 11.400200 -25.070282 2.177931 -0.459027 0.860726 -12.936917 24.442163 -2.301609 -1.459577 60.956711 8.448250 15.097318 -18.208127 43.767966 -1.378815 4.991090 0.988866 -12.113196 
-0.036307 0.754297 0.998144 -95.722263 -1.571478 82.951965 5.236270 -7.196052 -34.717739 -8.294006 8.536679 46.610480 6.644283 8.649421 -16.394780 0.000000 -0.000000 0.000000 -1.333828 -2.704823 15.812285 0.761190 8.679264 13.090376 3.372761 -1.050269 -9.873198 0.000000 -0.000000 0.000000 -4.359025 12.152539 14.883643 0.812071 -2.834719 5.045327 -1.824679 1.015791 7.453919 3.536238 -0.705779 8.507187 3.901974 -6.833631 12.175081 -25.488140 7.277284 1.825680 -57.198717 -1.736775 5.877449 12.220311 -25.952376 1.016824 0.070409 0.491782 -13.358942 24.103897 -2.241966 -0.961745 61.343164 7.636997 15.110490 -18.334156 43.663147 -1.257973 5.707286 1.433008 -11.960103 
-0.056638 0.750632 1.008843 -95.576899 -1.220952 84.013834 4.656270 -7.437989 -32.781486 -8.442321 7.711644 44.378628 6.995746 9.428640 -17.053190 0.000000 -0.000000 0.000000 -1.517873 -3.072563 15.094223 0.641113 8.656020 13.781609 5.168265 -0.227390 -4.384102 0.000000 -0.000000 0.000000 -4.798132 12.454181 14.053732 0.652768 -2.453413 5.101292 -1.805081 1.041075 7.487522 3.774979 -1.466975 8.364766 4.584856 -6.794033 11.920490 -25.161487 6.790599 1.503175 -57.609628 -3.008725 6.420098 12.838365 -26.874898 -0.082087 0.982130 0.387506 -13.883149 23.671362 -2.391469 -0.912075 61.683862 6.878270 15.405928 -17.999975 42.873294 -1.270968 5.769593 1.271209 -11.928900 
-0.075676 0.747067 1.022226 -94.907875 -0.689709 85.395592 4.239614 -7.596330 -30.909269 -8.422409 6.783226 41.236865 7.665133 9.446824 -16.939590 0.000000 -0.000000 0.000000 -1.533639 -3.883258 12.998895 0.669952 8.125611 15.639306 7.178816 0.695339 2.364458 0.000000 -0.000000 0.000000 -5.324882 11.988615 13.511708 0.546755 -2.386130 4.438648 -1.610903 0.917933 7.050197 3.686982 -2.278505 8.655154 5.338605 -6.420928 11.873002 -25.023669 7.147485 1.714913 -57.730304 -3.905197 6.860776 13.038586 -29.482875 -0.855028 1.032251 0.145096 -14.409520 23.396873 -2.971194 -0.562999 61.707273 6.141002 15.457358 -17.041062 42.130591 -0.481614 6.624854 1.152306 -11.128041 
-0.093470 0.743168 1.036694 -94.119692 -0.158783 86.331171 3.399853 -7.760034 -28.353467 -8.261717 5.023627 37.767928 7.981727 9.845045 -16.735978 0.000000 -0.000000 0.000000 -0.995306 -3.740802 9.759757 0.509505 7.137666 20.252646 9.446664 0.850935 6.842383 0.000000 -0.000000 0.000000 -5.841359 11.180462 13.060303 0.671568 -2.185421 4.267812 -1.369218 0.554482 7.108417 3.834748 -2.375181 8.287013 5.557819 -6.078286 11.558893 -25.008792 7.285013 1.707198 -57.940728 -4.775362 7.722898 13.558513 -32.730728 -1.445929 0.885278 -0.112730 -14.876242 23.091886 -3.309534 -0.839957 61.768196 5.172964 15.673782 -17.112454 41.286915 -1.092166 7.429280 0.804108 -10.694909 
-0.110134 0.739605 1.050749 -93.578995 0.235338 86.763733 2.431327 -7.829867 -25.264490 -8.084976 2.829480 34.157657 8.377109 10.233484 -16.316744 0.000000 -0.000000 0.000000 -0.069796 -2.890650 4.803696 0.364540 6.074047 29.462546 9.286200 -1.289629 8.557746 0.000000 -0.000000 0.000000 -6.291640 9.921518 13.237803 0.828393 -1.623581 4.071868 -1.393480 0.113125 7.182678 4.101359 -2.224660 7.592678 5.455523 -5.816346 11.164828 -24.825958 7.525054 1.666673 -57.854351 -5.677337 8.391913 13.564411 -36.356545 -0.745092 0.757679 -0.625790 -14.986459 23.110753 -3.811918 -1.262144 61.847042 4.290934 15.802679 -17.532973 40.237279 -2.035678 8.461732 0.711823 -10.218990 
-0.126359 0.735759 1.063120 -93.011481 0.581030 86.401701 1.209505 -7.739235 -21.385016 -7.535819 0.579720 30.611614 8.621400 10.750298 -15.989133 0.000000 -0.000000 0.000000 0.348211 -1.745842 -0.780833 0.116618 3.620475 42.492594 8.893248 -3.772353 7.091108 0.000000 -0.000000 0.000000 -6.576976 8.348208 13.972580 0.960142 -1.135139 3.999002 -1.366142 -0.141858 7.167216 4.304561 -2.305687 7.523850 5.248334 -5.668809 10.750903 -24.400659 7.037124 1.580953 -57.893717 -6.405061 9.197331 13.413065 -39.215563 -0.117851 1.618874 -1.130577 -15.229692 22.898850 -3.778235 -1.334291 62.033407 3.259582 15.532970 -18.325358 39.327057 -3.753195 8.208918 0.961200 -10.393706 
